HIERARCHY
ROOT Pelvis
{
	OFFSET 0.000000 0.000000 0.000000
	CHANNELS 6 Xposition Yposition Zposition Xrotation Yrotation Zrotation
	JOINT LeftUpLeg_virtual
	{
		OFFSET 0.000000 0.000000 0.000000
		CHANNELS 3 Xrotation Yrotation Zrotation
		JOINT LeftUpLeg
		{
			OFFSET 18.735201 -5.666702 -4.541200
			CHANNELS 3 Xrotation Yrotation Zrotation
			JOINT LeftLeg
			{
				OFFSET -0.021200 -31.938179 0.493100
				CHANNELS 3 Xrotation Yrotation Zrotation
				JOINT LeftFoot
				{
					OFFSET 0.021200 -31.938179 -4.336299
					CHANNELS 3 Xrotation Yrotation Zrotation
					JOINT LeftToeBase
					{
						OFFSET 0.943001 -26.722000 15.023500
						CHANNELS 3 Xrotation Yrotation Zrotation
						End Site
						{
							OFFSET 0 0 0
						}
					}
				}
			}
		}
	}
	JOINT RightUpLeg_virtual
	{
		OFFSET 0.000000 0.000000 0.000000
		CHANNELS 3 Xrotation Yrotation Zrotation
		JOINT RightUpLeg
		{
			OFFSET -18.735201 -5.666702 -4.541200
			CHANNELS 3 Xrotation Yrotation Zrotation
			JOINT RightLeg
			{
				OFFSET 0.018946 -31.938133 0.493100
				CHANNELS 3 Xrotation Yrotation Zrotation
				JOINT RightFoot
				{
					OFFSET -0.018946 -31.938126 -4.336299
					CHANNELS 3 Xrotation Yrotation Zrotation
					JOINT RightToeBase
					{
						OFFSET -0.943001 -26.722004 15.023500
						CHANNELS 3 Xrotation Yrotation Zrotation
						End Site
						{
							OFFSET 0 0 0
						}
					}
				}
			}
		}
	}
	JOINT Hips_virtual
	{
		OFFSET 0.000000 0.000000 0.000000
		CHANNELS 3 Xrotation Yrotation Zrotation
		JOINT Hips
		{
			OFFSET -0.000000 -0.000000 -0.000000
			CHANNELS 3 Xrotation Yrotation Zrotation
			JOINT Spine
			{
				OFFSET 0.000000 10.199997 -0.299500
				CHANNELS 3 Xrotation Yrotation Zrotation
				JOINT Spine1
				{
					OFFSET 0.000000 11.900002 -1.516600
					CHANNELS 3 Xrotation Yrotation Zrotation
					JOINT Spine2
					{
						OFFSET 0.000000 13.600006 -2.842500
						CHANNELS 3 Xrotation Yrotation Zrotation
						JOINT Neck_virtual
						{
							OFFSET 0.000000 0.000000 0.000000
							CHANNELS 3 Xrotation Yrotation Zrotation
							JOINT Neck
							{
								OFFSET 0.000000 9.624100 -2.890100
								CHANNELS 3 Xrotation Yrotation Zrotation
								JOINT Head
								{
									OFFSET 0.000000 14.068802 -1.351900
									CHANNELS 3 Xrotation Yrotation Zrotation
									End Site
									{
										OFFSET 0 0 0
									}
								}
							}
						}
						JOINT LeftShoulder_virtual
						{
							OFFSET 0.000000 0.000000 0.000000
							CHANNELS 3 Xrotation Yrotation Zrotation
							JOINT LeftShoulder
							{
								OFFSET 15.263000 10.923401 -0.547700
								CHANNELS 3 Xrotation Yrotation Zrotation
								JOINT LeftArm
								{
									OFFSET 25.438599 -2.830597 -13.032500
									CHANNELS 3 Xrotation Yrotation Zrotation
									JOINT LeftForeArm
									{
										OFFSET 29.960503 0.000000 0.000000
										CHANNELS 3 Xrotation Yrotation Zrotation
										JOINT LeftHand
										{
											OFFSET 27.849251 0.000000 0.000000
											CHANNELS 3 Xrotation Yrotation Zrotation
											End Site
											{
												OFFSET 0 0 0
											}
										}
									}
								}
							}
						}
						JOINT RightShoulder_virtual
						{
							OFFSET 0.000000 0.000000 0.000000
							CHANNELS 3 Xrotation Yrotation Zrotation
							JOINT RightShoulder
							{
								OFFSET -15.263000 10.923401 -0.547700
								CHANNELS 3 Xrotation Yrotation Zrotation
								JOINT RightArm
								{
									OFFSET -25.438599 -2.830597 -13.032500
									CHANNELS 3 Xrotation Yrotation Zrotation
									JOINT RightForeArm
									{
										OFFSET -29.960503 0.000000 0.000000
										CHANNELS 3 Xrotation Yrotation Zrotation
										JOINT RightHand
										{
											OFFSET -27.849251 0.000000 0.000000
											CHANNELS 3 Xrotation Yrotation Zrotation
											End Site
											{
												OFFSET 0 0 0
											}
										}
									}
								}
							}
						}
					}
				}
			}
		}
	}
}
MOTION
Frames: 5
Frame Time: 0.03333333
-2.615973 80.588120 2.356596 0.000000 0.000000 0.000000 -0.470514 -39.928108 2.691528 -44.633801 -1.695970 17.861973 49.941035 -8.650105 -0.972438 -5.077402 -7.991268 -12.972243 0.000000 0.000000 0.000000 5.902921 -43.291255 -2.473305 -26.058222 -15.862040 -23.708031 48.684099 -0.401628 -1.095299 -9.997069 -3.310622 10.058735 0.000000 0.000000 0.000000 -2.557327 -20.991188 0.287663 -4.227552 -19.619350 -1.600451 7.905942 3.901381 -1.346289 2.965560 2.005809 -1.060927 0.000000 0.000000 0.000000 3.904626 2.697345 0.095597 0.098913 2.109728 0.059482 0.000000 0.000000 0.000000 2.752745 1.884787 -0.466073 0.709723 2.274995 -6.278169 -44.520283 -16.193487 -59.624437 -41.474825 -78.174514 -38.155335 0.000000 0.000000 0.000000 3.288317 1.566908 -1.620635 1.922737 13.040650 -1.999220 -33.739027 35.322163 65.981082 -170.551914 69.757828 172.686566 0.000000 0.000000 0.000000 
-2.262569 80.176102 1.660908 0.000000 0.000000 0.000000 -1.387682 -40.092247 2.496292 -45.413767 -1.981302 17.817822 50.714520 -9.562085 -1.079429 -4.687826 -8.806296 -13.938139 0.000000 0.000000 0.000000 5.787415 -41.937566 -2.920555 -25.751664 -15.429852 -23.806138 48.946471 0.328540 -0.841220 -10.248384 -2.858142 10.900685 0.000000 0.000000 0.000000 -3.934019 -21.592074 -0.488397 -2.710691 -16.722916 -0.758610 8.308055 4.001608 -1.810141 3.209472 2.371426 -0.980976 0.000000 0.000000 0.000000 4.048550 2.602600 -0.256720 0.213867 2.270072 -0.019947 0.000000 0.000000 0.000000 2.268499 1.765358 -0.434123 1.237663 3.204866 -6.310523 -47.399775 -16.522101 -60.594508 -49.707648 -80.170206 -46.413540 0.000000 0.000000 0.000000 3.046446 1.472825 -1.777088 2.269298 12.540891 -2.011459 -34.897216 36.483196 66.729391 -171.131414 64.807102 173.124750 0.000000 0.000000 0.000000 
-1.434499 79.563194 1.942823 0.000000 0.000000 0.000000 -1.964780 -39.428462 2.200033 -45.890351 -1.861427 17.709847 50.645436 -9.453404 -1.125100 -4.819840 -8.614303 -13.977922 0.000000 0.000000 0.000000 5.720918 -43.088231 -3.018426 -25.631402 -15.733527 -23.940356 48.133610 0.241854 -0.840845 -11.043688 -2.997980 10.750335 0.000000 0.000000 0.000000 -1.934176 -22.006630 1.072135 -5.359113 -15.862814 -1.640916 9.305580 3.973603 -2.506333 2.792233 2.325668 -0.817295 0.000000 0.000000 0.000000 4.640270 2.455647 -0.340393 0.344068 2.346930 -0.157940 0.000000 0.000000 0.000000 2.100943 2.009882 -0.427474 1.151706 2.760095 -7.100694 -50.615752 -17.864027 -60.630414 -52.539847 -80.435832 -48.741480 0.000000 0.000000 0.000000 2.797692 1.432354 -1.769212 2.471227 11.599280 -2.065280 -33.041085 34.636798 65.555206 -170.487300 65.732648 171.689700 0.000000 0.000000 0.000000 
-2.259307 79.154808 1.572170 0.000000 0.000000 0.000000 -1.261463 -38.478281 2.972789 -45.632207 -1.692071 18.496297 52.374584 -9.482420 -1.138232 -3.578359 -8.702937 -14.203226 0.000000 0.000000 0.000000 5.798303 -43.841915 -2.924650 -25.550594 -15.961112 -23.899911 48.891997 0.276773 -0.791747 -10.647768 -2.959382 10.832479 0.000000 0.000000 0.000000 -3.253673 -22.162010 0.316359 -2.321246 -16.835014 -1.453076 8.289839 3.523746 -1.781680 2.980821 2.505578 -0.936490 0.000000 0.000000 0.000000 4.318331 2.284766 -0.138542 0.214117 2.338874 -0.080655 0.000000 0.000000 0.000000 2.539116 1.906725 -0.699736 0.984266 3.852724 -7.172949 -50.839536 -18.968123 -60.491208 -58.057250 -81.280706 -54.195884 0.000000 0.000000 0.000000 2.614300 1.563620 -1.783282 1.693444 11.577462 -1.081905 -35.434287 33.167248 66.471681 -168.953608 64.569562 170.096927 0.000000 0.000000 0.000000 
-1.842311 78.985168 1.346746 0.000000 0.000000 0.000000 -0.416100 -38.505055 3.475609 -44.922349 -1.645596 18.812404 53.342575 -9.733535 -1.180711 -3.011960 -8.928707 -14.528016 0.000000 0.000000 0.000000 5.679662 -45.119612 -3.328898 -25.606557 -16.271495 -24.396317 48.748399 0.111662 -0.817771 -11.160321 -3.128800 10.647247 0.000000 0.000000 0.000000 -2.342023 -21.484609 0.737210 -5.224948 -16.641542 -0.316814 10.212349 3.731970 -2.042947 3.198749 2.377027 -0.570243 0.000000 0.000000 0.000000 4.751193 2.110085 -0.127273 0.146749 2.485736 -0.071159 0.000000 0.000000 0.000000 2.482063 1.542462 -0.796952 0.820732 4.289929 -8.010804 -50.688125 -19.944123 -60.006927 -57.177061 -80.974891 -53.650887 0.000000 0.000000 0.000000 2.896855 1.417098 -1.481199 2.579348 12.131627 -1.303979 -32.981911 32.802086 65.797685 -168.470209 63.411422 170.066943 0.000000 0.000000 0.000000 
